<mxfile host="app.diagrams.net" modified="2023-09-15T17:50:11.848Z" agent="Mozilla/5.0 (Macintosh; Intel Mac OS X 10_15_7) AppleWebKit/605.1.15 (KHTML, like Gecko) Version/16.5.2 Safari/605.1.15" etag="ungyNyGUsNOw1tu1rEsN" version="21.7.5" type="github">
  <diagram name="Page-1" id="yyVcuT7ZG6_ZORZ-o0uv">
    <mxGraphModel dx="954" dy="533" grid="1" gridSize="10" guides="1" tooltips="1" connect="1" arrows="1" fold="1" page="1" pageScale="1" pageWidth="827" pageHeight="1169" math="0" shadow="0">
      <root>
        <mxCell id="0" />
        <mxCell id="1" parent="0" />
        <mxCell id="BWfFkoRCmFagp8KXcjzF-1" value="User&lt;br&gt;" style="shape=umlActor;verticalLabelPosition=bottom;verticalAlign=top;html=1;" vertex="1" parent="1">
          <mxGeometry x="50" y="390" width="30" height="60" as="geometry" />
        </mxCell>
        <mxCell id="BWfFkoRCmFagp8KXcjzF-4" value="SignIn" style="ellipse;whiteSpace=wrap;html=1;" vertex="1" parent="1">
          <mxGeometry x="220" y="220" width="130" height="60" as="geometry" />
        </mxCell>
        <mxCell id="BWfFkoRCmFagp8KXcjzF-7" value="Project Board" style="shape=umlFrame;whiteSpace=wrap;html=1;pointerEvents=0;width=130;height=40;" vertex="1" parent="1">
          <mxGeometry x="130" y="140" width="510" height="710" as="geometry" />
        </mxCell>
        <mxCell id="BWfFkoRCmFagp8KXcjzF-8" value="SignUp" style="ellipse;whiteSpace=wrap;html=1;" vertex="1" parent="1">
          <mxGeometry x="210" y="340" width="130" height="60" as="geometry" />
        </mxCell>
        <mxCell id="BWfFkoRCmFagp8KXcjzF-10" value="View Board" style="ellipse;whiteSpace=wrap;html=1;" vertex="1" parent="1">
          <mxGeometry x="190" y="450" width="130" height="60" as="geometry" />
        </mxCell>
        <mxCell id="BWfFkoRCmFagp8KXcjzF-11" value="View Post" style="ellipse;whiteSpace=wrap;html=1;" vertex="1" parent="1">
          <mxGeometry x="170" y="700" width="130" height="60" as="geometry" />
        </mxCell>
        <mxCell id="BWfFkoRCmFagp8KXcjzF-15" value="" style="endArrow=openThin;endFill=0;html=1;rounded=0;" edge="1" parent="1" target="BWfFkoRCmFagp8KXcjzF-4">
          <mxGeometry width="160" relative="1" as="geometry">
            <mxPoint x="80" y="411.65" as="sourcePoint" />
            <mxPoint x="190" y="320" as="targetPoint" />
          </mxGeometry>
        </mxCell>
        <mxCell id="BWfFkoRCmFagp8KXcjzF-17" value="" style="endArrow=openThin;endFill=0;html=1;rounded=0;entryX=0;entryY=0.5;entryDx=0;entryDy=0;exitX=1;exitY=0.3333333333333333;exitDx=0;exitDy=0;exitPerimeter=0;" edge="1" parent="1" source="BWfFkoRCmFagp8KXcjzF-1" target="BWfFkoRCmFagp8KXcjzF-8">
          <mxGeometry width="160" relative="1" as="geometry">
            <mxPoint x="90" y="421.65" as="sourcePoint" />
            <mxPoint x="200" y="330" as="targetPoint" />
          </mxGeometry>
        </mxCell>
        <mxCell id="BWfFkoRCmFagp8KXcjzF-18" value="" style="endArrow=openThin;endFill=0;html=1;rounded=0;entryX=0.023;entryY=0.383;entryDx=0;entryDy=0;entryPerimeter=0;" edge="1" parent="1" target="BWfFkoRCmFagp8KXcjzF-10">
          <mxGeometry width="160" relative="1" as="geometry">
            <mxPoint x="80" y="410" as="sourcePoint" />
            <mxPoint x="180" y="460" as="targetPoint" />
          </mxGeometry>
        </mxCell>
        <mxCell id="BWfFkoRCmFagp8KXcjzF-19" value="" style="endArrow=openThin;endFill=0;html=1;rounded=0;entryX=0.023;entryY=0.383;entryDx=0;entryDy=0;entryPerimeter=0;" edge="1" parent="1">
          <mxGeometry width="160" relative="1" as="geometry">
            <mxPoint x="80" y="410" as="sourcePoint" />
            <mxPoint x="183" y="713" as="targetPoint" />
          </mxGeometry>
        </mxCell>
        <mxCell id="BWfFkoRCmFagp8KXcjzF-20" value="Auth" style="ellipse;whiteSpace=wrap;html=1;" vertex="1" parent="1">
          <mxGeometry x="470" y="180" width="130" height="60" as="geometry" />
        </mxCell>
        <mxCell id="BWfFkoRCmFagp8KXcjzF-21" value="SignIn Failed" style="ellipse;whiteSpace=wrap;html=1;" vertex="1" parent="1">
          <mxGeometry x="470" y="280" width="130" height="60" as="geometry" />
        </mxCell>
        <mxCell id="BWfFkoRCmFagp8KXcjzF-24" value="&amp;lt;&amp;lt;include&amp;gt;&amp;gt;" style="html=1;verticalAlign=bottom;endArrow=block;curved=0;rounded=0;exitX=1;exitY=0.5;exitDx=0;exitDy=0;dashed=1;" edge="1" parent="1" source="BWfFkoRCmFagp8KXcjzF-4" target="BWfFkoRCmFagp8KXcjzF-20">
          <mxGeometry width="80" relative="1" as="geometry">
            <mxPoint x="310" y="300" as="sourcePoint" />
            <mxPoint x="390" y="300" as="targetPoint" />
          </mxGeometry>
        </mxCell>
        <mxCell id="BWfFkoRCmFagp8KXcjzF-25" value="&amp;lt;&amp;lt;extend&amp;gt;&amp;gt;" style="html=1;verticalAlign=bottom;endArrow=block;curved=0;rounded=0;exitX=0;exitY=0.5;exitDx=0;exitDy=0;dashed=1;" edge="1" parent="1" source="BWfFkoRCmFagp8KXcjzF-21" target="BWfFkoRCmFagp8KXcjzF-4">
          <mxGeometry width="80" relative="1" as="geometry">
            <mxPoint x="380" y="370" as="sourcePoint" />
            <mxPoint x="460" y="370" as="targetPoint" />
          </mxGeometry>
        </mxCell>
        <mxCell id="BWfFkoRCmFagp8KXcjzF-26" value="Sort Board" style="ellipse;whiteSpace=wrap;html=1;" vertex="1" parent="1">
          <mxGeometry x="370" y="380" width="130" height="60" as="geometry" />
        </mxCell>
        <mxCell id="BWfFkoRCmFagp8KXcjzF-27" value="Search Board" style="ellipse;whiteSpace=wrap;html=1;" vertex="1" parent="1">
          <mxGeometry x="370" y="525" width="130" height="60" as="geometry" />
        </mxCell>
        <mxCell id="BWfFkoRCmFagp8KXcjzF-28" value="" style="endArrow=open;endFill=1;endSize=12;html=1;rounded=0;dashed=1;" edge="1" parent="1" source="BWfFkoRCmFagp8KXcjzF-10" target="BWfFkoRCmFagp8KXcjzF-26">
          <mxGeometry width="160" relative="1" as="geometry">
            <mxPoint x="290" y="555" as="sourcePoint" />
            <mxPoint x="450" y="555" as="targetPoint" />
          </mxGeometry>
        </mxCell>
        <mxCell id="BWfFkoRCmFagp8KXcjzF-29" value="" style="endArrow=open;endFill=1;endSize=12;html=1;rounded=0;dashed=1;exitX=0.962;exitY=0.65;exitDx=0;exitDy=0;exitPerimeter=0;" edge="1" parent="1" source="BWfFkoRCmFagp8KXcjzF-10" target="BWfFkoRCmFagp8KXcjzF-27">
          <mxGeometry width="160" relative="1" as="geometry">
            <mxPoint x="270" y="577" as="sourcePoint" />
            <mxPoint x="366" y="543" as="targetPoint" />
          </mxGeometry>
        </mxCell>
        <mxCell id="BWfFkoRCmFagp8KXcjzF-30" value="Write, Edit, Delete Posts" style="ellipse;whiteSpace=wrap;html=1;" vertex="1" parent="1">
          <mxGeometry x="430" y="630" width="130" height="60" as="geometry" />
        </mxCell>
        <mxCell id="BWfFkoRCmFagp8KXcjzF-31" value="Write, Edit, Delete Comments" style="ellipse;whiteSpace=wrap;html=1;" vertex="1" parent="1">
          <mxGeometry x="370" y="760" width="130" height="60" as="geometry" />
        </mxCell>
        <mxCell id="BWfFkoRCmFagp8KXcjzF-33" value="" style="endArrow=open;endFill=1;endSize=12;html=1;rounded=0;exitX=1.038;exitY=0.4;exitDx=0;exitDy=0;dashed=1;exitPerimeter=0;" edge="1" parent="1" source="BWfFkoRCmFagp8KXcjzF-11" target="BWfFkoRCmFagp8KXcjzF-30">
          <mxGeometry width="160" relative="1" as="geometry">
            <mxPoint x="290" y="720" as="sourcePoint" />
            <mxPoint x="450" y="720" as="targetPoint" />
          </mxGeometry>
        </mxCell>
        <mxCell id="BWfFkoRCmFagp8KXcjzF-34" value="" style="endArrow=open;endFill=1;endSize=12;html=1;rounded=0;exitX=1;exitY=0.5;exitDx=0;exitDy=0;dashed=1;" edge="1" parent="1" source="BWfFkoRCmFagp8KXcjzF-11" target="BWfFkoRCmFagp8KXcjzF-31">
          <mxGeometry width="160" relative="1" as="geometry">
            <mxPoint x="289" y="751" as="sourcePoint" />
            <mxPoint x="370" y="740" as="targetPoint" />
          </mxGeometry>
        </mxCell>
        <mxCell id="BWfFkoRCmFagp8KXcjzF-35" value="DB" style="html=1;dropTarget=0;whiteSpace=wrap;" vertex="1" parent="1">
          <mxGeometry x="700" y="435" width="93" height="90" as="geometry" />
        </mxCell>
        <mxCell id="BWfFkoRCmFagp8KXcjzF-37" value="" style="endArrow=classic;endFill=1;endSize=12;html=1;rounded=0;exitX=0;exitY=0.5;exitDx=0;exitDy=0;entryX=1;entryY=1;entryDx=0;entryDy=0;" edge="1" parent="1" source="BWfFkoRCmFagp8KXcjzF-35" target="BWfFkoRCmFagp8KXcjzF-20">
          <mxGeometry width="160" relative="1" as="geometry">
            <mxPoint x="340" y="450" as="sourcePoint" />
            <mxPoint x="500" y="450" as="targetPoint" />
          </mxGeometry>
        </mxCell>
        <mxCell id="BWfFkoRCmFagp8KXcjzF-38" value="" style="endArrow=classic;endFill=1;endSize=12;html=1;rounded=0;exitX=0;exitY=0.5;exitDx=0;exitDy=0;" edge="1" parent="1" source="BWfFkoRCmFagp8KXcjzF-35" target="BWfFkoRCmFagp8KXcjzF-10">
          <mxGeometry width="160" relative="1" as="geometry">
            <mxPoint x="679" y="594" as="sourcePoint" />
            <mxPoint x="560" y="350" as="targetPoint" />
          </mxGeometry>
        </mxCell>
        <mxCell id="BWfFkoRCmFagp8KXcjzF-39" value="" style="endArrow=classic;endFill=1;endSize=12;html=1;rounded=0;exitX=0;exitY=0.5;exitDx=0;exitDy=0;" edge="1" parent="1" source="BWfFkoRCmFagp8KXcjzF-35" target="BWfFkoRCmFagp8KXcjzF-11">
          <mxGeometry width="160" relative="1" as="geometry">
            <mxPoint x="700" y="600" as="sourcePoint" />
            <mxPoint x="320" y="604" as="targetPoint" />
          </mxGeometry>
        </mxCell>
        <mxCell id="BWfFkoRCmFagp8KXcjzF-40" value="" style="endArrow=classic;endFill=1;endSize=12;html=1;rounded=0;exitX=0;exitY=0.5;exitDx=0;exitDy=0;entryX=0.962;entryY=0.767;entryDx=0;entryDy=0;entryPerimeter=0;" edge="1" parent="1" source="BWfFkoRCmFagp8KXcjzF-35" target="BWfFkoRCmFagp8KXcjzF-31">
          <mxGeometry width="160" relative="1" as="geometry">
            <mxPoint x="746.5" y="490" as="sourcePoint" />
            <mxPoint x="323.5" y="717" as="targetPoint" />
            <Array as="points">
              <mxPoint x="700" y="730" />
            </Array>
          </mxGeometry>
        </mxCell>
        <mxCell id="BWfFkoRCmFagp8KXcjzF-41" value="" style="endArrow=classic;endFill=1;endSize=12;html=1;rounded=0;" edge="1" parent="1" target="BWfFkoRCmFagp8KXcjzF-30">
          <mxGeometry width="160" relative="1" as="geometry">
            <mxPoint x="700" y="480" as="sourcePoint" />
            <mxPoint x="505" y="816" as="targetPoint" />
            <Array as="points">
              <mxPoint x="640" y="600" />
            </Array>
          </mxGeometry>
        </mxCell>
      </root>
    </mxGraphModel>
  </diagram>
</mxfile>
